<svg width="1119" height="384" viewBox="0 0 1119 384" fill="none" xmlns="http://www.w3.org/2000/svg">
    <g clip-path="url(#clip0_2586_39)">
        <path d="M472.64 174.72V94.9302H490L519.07 142.23L506.64 142.12L536 94.9302H552.65V174.72H533.84V149.87C533.84 143.03 534.01 136.874 534.35 131.4C534.69 125.927 535.28 120.494 536.12 115.1L538.28 121.03L516.17 155.34H508.65L487 121.26L489.16 115.1C490 120.2 490.59 125.427 490.93 130.78C491.27 136.134 491.44 142.497 491.44 149.87V174.72H472.64Z" fill="black"/>
        <path d="M593.35 174.72V134.94L594.15 140.52L561.89 94.9299H583.89L608.51 130.26L598.51 129.92L620.74 94.9199H642L611.11 141.77L612.82 134.02V174.71L593.35 174.72Z" fill="black"/>
        <path d="M471.24 290.35V210.56H506.46C511.204 210.434 515.927 211.225 520.37 212.89C523.858 214.206 526.861 216.554 528.98 219.62C530.975 222.766 531.985 226.436 531.88 230.16C532.017 234.26 530.84 238.296 528.52 241.68C526.139 244.884 522.673 247.112 518.77 247.95L518.55 245.78C521.894 246.446 525.059 247.809 527.84 249.78C530.454 251.631 532.574 254.095 534.014 256.956C535.455 259.817 536.171 262.988 536.1 266.19C536.199 269.809 535.517 273.408 534.1 276.74C532.758 279.704 530.724 282.303 528.17 284.32C525.482 286.425 522.403 287.975 519.11 288.88C515.378 289.904 511.52 290.402 507.65 290.36L471.24 290.35ZM489.48 242.59H503.73C505.473 242.629 507.203 242.287 508.8 241.59C510.117 241.021 511.229 240.066 511.99 238.85C512.743 237.556 513.117 236.076 513.07 234.58C513.12 233.493 512.921 232.408 512.487 231.41C512.054 230.412 511.398 229.526 510.57 228.82C508.89 227.42 506.39 226.71 503.04 226.71H489.48V242.59ZM489.48 274.16H506.92C508.774 274.219 510.62 273.878 512.33 273.16C513.759 272.522 514.969 271.479 515.81 270.16C516.682 268.696 517.116 267.013 517.06 265.31C517.114 263.727 516.654 262.17 515.75 260.87C514.811 259.601 513.527 258.629 512.05 258.07C510.231 257.377 508.297 257.038 506.35 257.07H489.48V274.16Z" fill="black"/>
        <path d="M551.15 290.35V210.56H587.051C591.869 210.494 596.629 211.628 600.9 213.86C604.907 215.946 608.276 219.077 610.65 222.92C613.029 226.856 614.252 231.382 614.18 235.98C614.251 240.717 613.03 245.384 610.65 249.48C608.329 253.434 604.981 256.686 600.96 258.89C596.696 261.209 591.904 262.387 587.051 262.31H569.611V290.31L551.15 290.35ZM569.611 247.49H585.341C587.157 247.53 588.951 247.077 590.531 246.18C592.011 245.307 593.201 244.016 593.95 242.47C594.773 240.766 595.18 238.891 595.14 237C595.182 235.107 594.712 233.238 593.781 231.59C592.86 230.023 591.486 228.771 589.841 228C587.894 227.111 585.769 226.68 583.63 226.74H569.63L569.611 247.49ZM595.371 290.35L575.081 254.35L594.92 251.5L617.49 290.37L595.371 290.35Z" fill="black"/>
        <path d="M621 290.35L652.57 210.56H669L700.35 290.35H680.74L665.69 249.88C665.08 248.29 664.48 246.58 663.87 244.75C663.26 242.92 662.65 241.05 662.05 239.11C661.45 237.17 660.85 235.28 660.28 233.41C659.71 231.54 659.23 229.82 658.85 228.22L662.27 228.11C661.82 230.01 661.27 231.87 660.74 233.7C660.21 235.53 659.6 237.33 659.03 239.11C658.46 240.89 657.83 242.68 657.14 244.47C656.45 246.26 655.81 248.1 655.21 250L640.21 290.35H621ZM636.05 275.07L642.05 260.48H678.75L684.68 275.07H636.05Z" fill="black"/>
        <path d="M710.27 290.35V210.56H727.6L769.429 267.56L765.669 266.99C765.289 264.477 764.986 262.083 764.76 259.81C764.533 257.537 764.323 255.293 764.129 253.08C763.943 250.88 763.789 248.64 763.669 246.36C763.559 244.08 763.479 241.61 763.449 238.95C763.419 236.29 763.389 233.4 763.389 230.29V210.56H782.199V290.35H764.639L721 231.53L726.81 232.33C727.19 235.98 727.51 239.07 727.81 241.62C728.11 244.17 728.3 246.43 728.49 248.4C728.68 250.37 728.809 252.16 728.889 253.76C728.969 255.36 729.02 256.93 729.06 258.49C729.1 260.05 729.12 261.78 729.12 263.68V290.35H710.27Z" fill="black"/>
        <path d="M802.26 290.35V210.56H835.66C841.152 210.496 846.606 211.48 851.73 213.46C856.458 215.304 860.748 218.118 864.322 221.721C867.896 225.325 870.675 229.637 872.48 234.38C874.428 239.511 875.395 244.962 875.33 250.45C875.391 255.957 874.425 261.427 872.48 266.58C870.681 271.322 867.904 275.632 864.33 279.23C860.736 282.8 856.447 285.595 851.73 287.44C846.608 289.428 841.153 290.416 835.66 290.35H802.26ZM821.64 277.13L819.02 273.25H835.09C838.024 273.301 840.935 272.739 843.64 271.6C846.092 270.539 848.289 268.963 850.08 266.98C851.93 264.887 853.344 262.446 854.24 259.8C856.213 253.726 856.213 247.184 854.24 241.11C853.346 238.46 851.931 236.016 850.08 233.92C848.285 231.943 846.09 230.371 843.64 229.31C840.936 228.168 838.024 227.603 835.09 227.65H818.67L821.67 224.01L821.64 277.13Z" fill="black"/>
        <path d="M887 290.35V274.05H900.45V226.86H887V210.56H933.4V226.86H919.83V274.05H933.4V290.35H887Z" fill="black"/>
        <path d="M951.81 290.35V210.56H969.14L1010.97 267.56L1007.21 266.99C1006.83 264.477 1006.53 262.083 1006.3 259.81C1006.07 257.537 1005.86 255.293 1005.67 253.08C1005.48 250.88 1005.33 248.64 1005.21 246.36C1005.1 244.08 1005.02 241.61 1004.99 238.95C1004.96 236.29 1004.93 233.4 1004.93 230.29V210.56H1023.74V290.35H1006.18L962.53 231.53L968.34 232.33C968.72 235.98 969.04 239.07 969.34 241.62C969.64 244.17 969.83 246.43 970.02 248.4C970.21 250.37 970.34 252.16 970.42 253.76C970.5 255.36 970.55 256.93 970.59 258.49C970.63 260.05 970.65 261.78 970.65 263.68V290.35H951.81Z" fill="black"/>
        <path d="M1080.84 291.49C1074.92 291.572 1069.05 290.526 1063.52 288.41C1058.52 286.473 1053.98 283.524 1050.18 279.75C1046.44 276.003 1043.53 271.517 1041.63 266.58C1039.61 261.326 1038.59 255.739 1038.63 250.11C1038.57 244.502 1039.63 238.938 1041.76 233.75C1043.82 228.832 1046.86 224.39 1050.71 220.7C1054.67 216.928 1059.34 213.984 1064.45 212.04C1069.96 209.946 1075.82 208.901 1081.72 208.96C1085.94 208.935 1090.14 209.511 1094.2 210.67C1097.95 211.739 1101.53 213.31 1104.86 215.34C1107.89 217.187 1110.62 219.494 1112.95 222.18L1101.21 234.61C1099.43 232.88 1097.46 231.351 1095.34 230.05C1093.31 228.831 1091.15 227.854 1088.9 227.14C1086.54 226.407 1084.07 226.043 1081.6 226.06C1076.99 226.012 1072.47 227.379 1068.66 229.977C1064.85 232.575 1061.93 236.279 1060.29 240.59C1059.13 243.628 1058.55 246.857 1058.58 250.11C1058.55 253.392 1059.17 256.647 1060.4 259.69C1061.55 262.553 1063.25 265.165 1065.4 267.38C1067.56 269.576 1070.14 271.32 1072.98 272.51C1075.95 273.771 1079.15 274.411 1082.38 274.39C1084.65 274.404 1086.91 274.018 1089.05 273.25C1091.02 272.558 1092.86 271.515 1094.46 270.17C1095.97 268.891 1097.21 267.324 1098.11 265.56C1099.02 263.777 1099.49 261.802 1099.48 259.8V256.8L1101.99 260.67H1079.99V245.55H1117.49C1117.67 246.682 1117.78 247.824 1117.83 248.97C1117.91 250.42 1117.96 251.82 1118 253.19C1118.04 254.56 1118.06 255.58 1118.06 256.27C1118.12 261.142 1117.17 265.973 1115.27 270.46C1113.46 274.665 1110.81 278.448 1107.46 281.57C1104.02 284.747 1099.99 287.226 1095.6 288.87C1090.88 290.643 1085.88 291.531 1080.84 291.49Z" fill="black"/>
        <path d="M988.11 324.26C992.21 324.26 996.11 325.8 999.72 327.71C999.808 327.754 999.885 327.819 999.943 327.898C1000 327.977 1000.04 328.07 1000.06 328.167C1000.07 328.264 1000.07 328.364 1000.04 328.458C1000.01 328.553 999.958 328.639 999.89 328.71L996.73 332.92C996.678 333.008 996.606 333.083 996.522 333.14C996.437 333.198 996.341 333.236 996.24 333.252C996.139 333.268 996.035 333.262 995.937 333.234C995.838 333.206 995.747 333.157 995.67 333.09C993.451 331.592 990.836 330.792 988.16 330.79C969.69 330.79 969.69 357.72 988.16 357.72C991.98 357.72 994.32 356.63 995.73 355.53C995.801 355.467 995.884 355.42 995.975 355.391C996.065 355.363 996.16 355.353 996.254 355.364C996.349 355.374 996.439 355.404 996.521 355.451C996.603 355.499 996.674 355.563 996.73 355.64L999.95 359.8C1000.01 359.874 1000.06 359.961 1000.08 360.054C1000.11 360.147 1000.11 360.244 1000.09 360.339C1000.08 360.434 1000.04 360.524 999.987 360.603C999.933 360.683 999.862 360.75 999.78 360.8C996.61 363.1 993.21 364.25 988.11 364.25C973.97 364.25 966.94 354.25 966.94 344.25C966.94 334.25 974 324.26 988.11 324.26Z" fill="black"/>
        <path d="M1006.06 325.09H1011.57C1011.67 325.078 1011.77 325.088 1011.86 325.119C1011.96 325.149 1012.04 325.2 1012.11 325.268C1012.19 325.336 1012.24 325.418 1012.28 325.51C1012.32 325.602 1012.33 325.701 1012.33 325.8V339.65C1012.32 339.862 1012.36 340.073 1012.44 340.27C1012.52 340.466 1012.65 340.642 1012.8 340.787C1012.96 340.932 1013.14 341.042 1013.34 341.11C1013.55 341.177 1013.76 341.201 1013.97 341.18H1030.28C1030.49 341.201 1030.7 341.177 1030.91 341.11C1031.11 341.042 1031.29 340.932 1031.45 340.787C1031.6 340.642 1031.72 340.466 1031.81 340.27C1031.89 340.073 1031.93 339.862 1031.92 339.65V325.8C1031.92 325.702 1031.94 325.606 1031.98 325.516C1032.02 325.426 1032.07 325.346 1032.14 325.279C1032.22 325.213 1032.3 325.161 1032.39 325.129C1032.48 325.096 1032.58 325.083 1032.68 325.09H1038.19C1038.29 325.078 1038.39 325.088 1038.48 325.119C1038.58 325.15 1038.66 325.2 1038.74 325.268C1038.81 325.335 1038.87 325.418 1038.91 325.51C1038.95 325.601 1038.96 325.7 1038.96 325.8V362.7C1038.96 362.799 1038.95 362.898 1038.91 362.99C1038.87 363.082 1038.81 363.164 1038.74 363.232C1038.66 363.299 1038.58 363.35 1038.48 363.381C1038.39 363.411 1038.29 363.421 1038.19 363.41H1032.68C1032.58 363.415 1032.49 363.401 1032.39 363.368C1032.3 363.335 1032.22 363.283 1032.15 363.217C1032.08 363.151 1032.02 363.071 1031.98 362.982C1031.94 362.893 1031.92 362.797 1031.92 362.7V348.85C1031.93 348.637 1031.89 348.424 1031.81 348.227C1031.73 348.03 1031.61 347.852 1031.45 347.706C1031.3 347.56 1031.11 347.449 1030.91 347.381C1030.71 347.312 1030.49 347.288 1030.28 347.31H1014C1013.79 347.288 1013.57 347.312 1013.37 347.381C1013.17 347.449 1012.98 347.56 1012.83 347.706C1012.67 347.852 1012.55 348.03 1012.47 348.227C1012.39 348.424 1012.35 348.637 1012.36 348.85V362.7C1012.36 362.798 1012.35 362.896 1012.31 362.987C1012.27 363.078 1012.21 363.16 1012.14 363.228C1012.07 363.295 1011.98 363.346 1011.89 363.377C1011.8 363.409 1011.7 363.42 1011.6 363.41H1006.09C1005.99 363.421 1005.89 363.411 1005.8 363.381C1005.7 363.35 1005.61 363.299 1005.54 363.232C1005.47 363.164 1005.41 363.082 1005.37 362.99C1005.33 362.898 1005.32 362.799 1005.32 362.7V325.8C1005.32 325.703 1005.33 325.607 1005.37 325.517C1005.41 325.428 1005.46 325.347 1005.53 325.28C1005.6 325.213 1005.68 325.162 1005.78 325.129C1005.87 325.096 1005.96 325.083 1006.06 325.09Z" fill="black"/>
        <path d="M1047.87 325.8C1047.86 325.701 1047.88 325.602 1047.92 325.51C1047.96 325.418 1048.01 325.336 1048.08 325.268C1048.16 325.2 1048.24 325.149 1048.34 325.119C1048.43 325.088 1048.53 325.078 1048.63 325.09H1073.63C1073.73 325.078 1073.83 325.088 1073.92 325.119C1074.02 325.149 1074.1 325.2 1074.17 325.268C1074.25 325.336 1074.3 325.418 1074.34 325.51C1074.38 325.602 1074.39 325.701 1074.39 325.8V330.51C1074.39 330.608 1074.38 330.706 1074.34 330.797C1074.3 330.888 1074.24 330.97 1074.17 331.038C1074.1 331.105 1074.01 331.156 1073.92 331.187C1073.83 331.219 1073.73 331.23 1073.63 331.22H1056.51C1056.3 331.197 1056.08 331.22 1055.88 331.287C1055.68 331.354 1055.49 331.463 1055.34 331.609C1055.18 331.754 1055.06 331.931 1054.97 332.127C1054.89 332.324 1054.85 332.537 1054.86 332.75V339.65C1054.85 339.863 1054.89 340.075 1054.97 340.272C1055.06 340.469 1055.18 340.646 1055.34 340.791C1055.49 340.936 1055.68 341.046 1055.88 341.113C1056.08 341.18 1056.3 341.203 1056.51 341.18H1069.41C1069.51 341.168 1069.61 341.178 1069.7 341.209C1069.8 341.239 1069.88 341.29 1069.95 341.358C1070.03 341.426 1070.08 341.508 1070.12 341.6C1070.16 341.692 1070.17 341.791 1070.17 341.89V346.6C1070.17 346.699 1070.16 346.798 1070.12 346.889C1070.08 346.981 1070.03 347.064 1069.95 347.132C1069.88 347.199 1069.8 347.25 1069.7 347.281C1069.61 347.312 1069.51 347.322 1069.41 347.31H1056.51C1056.3 347.288 1056.08 347.313 1055.88 347.381C1055.68 347.449 1055.49 347.56 1055.34 347.706C1055.18 347.851 1055.06 348.029 1054.97 348.226C1054.89 348.424 1054.85 348.636 1054.86 348.85V355.74C1054.85 355.953 1054.89 356.166 1054.97 356.363C1055.06 356.561 1055.18 356.738 1055.34 356.884C1055.49 357.03 1055.68 357.141 1055.88 357.209C1056.08 357.277 1056.3 357.301 1056.51 357.28H1073.63C1073.73 357.268 1073.83 357.278 1073.92 357.309C1074.02 357.339 1074.1 357.39 1074.17 357.458C1074.25 357.526 1074.3 357.608 1074.34 357.7C1074.38 357.792 1074.39 357.891 1074.39 357.99V362.7C1074.39 362.798 1074.38 362.896 1074.34 362.987C1074.3 363.078 1074.24 363.16 1074.17 363.228C1074.1 363.295 1074.01 363.346 1073.92 363.377C1073.83 363.409 1073.73 363.42 1073.63 363.41H1048.63C1048.53 363.42 1048.43 363.409 1048.34 363.377C1048.25 363.346 1048.16 363.295 1048.09 363.228C1048.02 363.16 1047.96 363.078 1047.92 362.987C1047.88 362.896 1047.87 362.798 1047.87 362.7V325.8Z" fill="black"/>
        <path d="M1082.37 325.09H1087.88C1087.98 325.078 1088.08 325.088 1088.17 325.119C1088.27 325.149 1088.35 325.2 1088.43 325.268C1088.5 325.336 1088.55 325.418 1088.59 325.51C1088.63 325.602 1088.64 325.701 1088.64 325.8V341C1088.64 341.55 1088.76 341.77 1088.99 341.77C1089.22 341.77 1089.4 341.66 1089.7 341.33L1103.13 325.67C1103.29 325.501 1103.48 325.367 1103.69 325.274C1103.9 325.181 1104.13 325.132 1104.36 325.13H1111C1111.47 325.13 1111.59 325.35 1111.3 325.67L1089.7 351C1089.04 351.761 1088.66 352.731 1088.64 353.74V362.74C1088.64 362.838 1088.63 362.936 1088.59 363.027C1088.55 363.118 1088.49 363.2 1088.42 363.268C1088.35 363.335 1088.26 363.386 1088.17 363.417C1088.08 363.449 1087.98 363.46 1087.88 363.45H1082.37C1082.27 363.461 1082.17 363.451 1082.08 363.421C1081.98 363.39 1081.89 363.339 1081.82 363.272C1081.75 363.204 1081.69 363.122 1081.65 363.03C1081.61 362.938 1081.6 362.839 1081.6 362.74V325.8C1081.6 325.7 1081.61 325.601 1081.65 325.51C1081.69 325.418 1081.75 325.335 1081.82 325.268C1081.89 325.2 1081.98 325.15 1082.08 325.119C1082.17 325.088 1082.27 325.078 1082.37 325.09ZM1098.37 349.5L1101.59 345.73C1101.64 345.653 1101.71 345.591 1101.79 345.548C1101.88 345.505 1101.97 345.482 1102.06 345.482C1102.15 345.482 1102.24 345.505 1102.33 345.548C1102.41 345.591 1102.48 345.653 1102.53 345.73L1116.78 362.86C1117.02 363.19 1116.9 363.41 1116.43 363.41H1109.51C1109.28 363.408 1109.05 363.358 1108.84 363.263C1108.63 363.169 1108.44 363.031 1108.28 362.86L1098.28 350.65C1098.14 350.487 1098.07 350.279 1098.08 350.067C1098.09 349.855 1098.17 349.653 1098.32 349.5H1098.37Z" fill="black"/>
        <path d="M691.46 361.89V321.05H708.09C710.207 321.036 712.285 321.615 714.09 322.72C715.942 323.864 717.467 325.467 718.518 327.373C719.569 329.279 720.11 331.424 720.09 333.6C720.115 335.828 719.549 338.022 718.45 339.96C717.399 341.818 715.909 343.391 714.11 344.54C712.318 345.681 710.234 346.278 708.11 346.26H697.78V361.89H691.46ZM697.76 340.19H708C709.024 340.198 710.025 339.883 710.86 339.29C711.731 338.666 712.441 337.843 712.93 336.89C713.463 335.876 713.735 334.745 713.72 333.6C713.739 332.461 713.467 331.335 712.93 330.33C712.439 329.397 711.729 328.597 710.86 328C710.021 327.417 709.021 327.11 708 327.12H697.79L697.76 340.19Z" fill="black"/>
        <path d="M740.12 362.48C737.316 362.522 734.552 361.807 732.12 360.41C729.792 359.053 727.869 357.099 726.55 354.75C725.21 352.224 724.51 349.409 724.51 346.55C724.51 343.691 725.21 340.876 726.55 338.35C727.872 336.003 729.794 334.05 732.12 332.69C734.567 331.33 737.32 330.617 740.12 330.617C742.919 330.617 745.673 331.33 748.12 332.69C750.445 334.05 752.367 336.003 753.69 338.35C755.029 340.876 755.73 343.691 755.73 346.55C755.73 349.409 755.029 352.224 753.69 354.75C752.37 357.099 750.447 359.053 748.12 360.41C745.691 361.814 742.925 362.53 740.12 362.48ZM740.12 356.99C741.852 357.019 743.554 356.543 745.02 355.62C746.46 354.702 747.628 353.414 748.4 351.89C749.236 350.238 749.638 348.401 749.57 346.55C749.643 344.68 749.24 342.822 748.4 341.15C747.632 339.631 746.463 338.351 745.02 337.45C743.534 336.563 741.835 336.095 740.105 336.095C738.374 336.095 736.676 336.563 735.19 337.45C733.732 338.36 732.55 339.65 731.77 341.18C731.005 342.857 730.61 344.678 730.61 346.52C730.61 348.363 731.005 350.184 731.77 351.86C732.55 353.391 733.732 354.68 735.19 355.59C736.662 356.528 738.375 357.018 740.12 357V356.99Z" fill="black"/>
        <path d="M768.59 361.89L758.14 331.26L764.21 331.21L771.68 354.13L770.34 354.02L778.45 336.11H782.06L790.23 354.11L788.66 354.22L796.18 331.29H802.25L791.92 361.92H787.78L779.26 342.44L780.61 342.61L772.67 361.92L768.59 361.89Z" fill="black"/>
        <path d="M821.15 362.48C818.235 362.545 815.352 361.856 812.78 360.48C810.407 359.199 808.429 357.294 807.06 354.97C805.651 352.525 804.935 349.742 804.99 346.92C804.961 344.669 805.358 342.433 806.16 340.33C806.895 338.413 807.996 336.657 809.4 335.16C810.808 333.691 812.513 332.539 814.4 331.78C816.389 330.966 818.521 330.558 820.67 330.58C822.577 330.564 824.465 330.953 826.21 331.72C827.888 332.456 829.404 333.516 830.67 334.84C831.954 336.191 832.948 337.791 833.59 339.54C834.298 341.431 834.638 343.441 834.59 345.46L834.54 348.03H809.54L808.19 343.24H829.37L828.5 344.24V342.84C828.395 341.593 827.949 340.4 827.21 339.39C826.475 338.386 825.517 337.568 824.41 337C823.275 336.418 822.016 336.12 820.74 336.13C818.898 336.072 817.071 336.481 815.43 337.32C813.998 338.113 812.854 339.338 812.16 340.82C811.37 342.61 810.99 344.554 811.05 346.51C811.003 348.452 811.465 350.372 812.39 352.08C813.269 353.645 814.591 354.915 816.19 355.73C817.944 356.613 819.887 357.053 821.85 357.01C823.294 357.022 824.728 356.768 826.08 356.26C827.636 355.59 829.067 354.66 830.31 353.51L833.31 357.77C832.307 358.758 831.157 359.585 829.9 360.22C828.543 360.925 827.115 361.484 825.64 361.89C824.176 362.285 822.666 362.483 821.15 362.48Z" fill="black"/>
        <path d="M841.05 361.89V331.26H847.12V340.89L846.53 338.56C846.967 337.086 847.714 335.722 848.72 334.56C849.712 333.388 850.921 332.417 852.28 331.7C853.563 331.014 854.995 330.654 856.45 330.65C857.087 330.648 857.724 330.708 858.35 330.83C858.84 330.915 859.319 331.053 859.78 331.24L858.2 337.77C857.697 337.565 857.179 337.401 856.65 337.28C856.113 337.119 855.559 337.025 855 337C853.969 336.999 852.949 337.207 852 337.61C851.061 338.009 850.209 338.587 849.49 339.31C848.766 340.029 848.183 340.877 847.77 341.81C847.336 342.796 847.117 343.863 847.13 344.94V361.85L841.05 361.89Z" fill="black"/>
        <path d="M897 362.48C895.661 362.475 894.332 362.259 893.06 361.84C891.802 361.428 890.605 360.85 889.5 360.12C888.494 359.456 887.591 358.647 886.82 357.72C886.155 356.953 885.666 356.048 885.39 355.07L886.9 354.25V361.72H880.9V318.72H886.9V338.27L885.97 337.74C886.196 336.788 886.633 335.9 887.25 335.14C887.974 334.256 888.831 333.49 889.79 332.87C890.833 332.181 891.963 331.632 893.15 331.24C894.331 330.832 895.571 330.623 896.82 330.62C899.417 330.573 901.972 331.285 904.17 332.67C906.334 334.057 908.088 335.997 909.25 338.29C910.527 340.832 911.169 343.646 911.12 346.49C911.167 349.341 910.536 352.161 909.28 354.72C908.138 357.036 906.393 359.001 904.23 360.41C902.075 361.795 899.561 362.515 897 362.48ZM896 356.99C897.694 357.019 899.358 356.542 900.78 355.62C902.196 354.689 903.344 353.403 904.11 351.89C904.907 350.212 905.32 348.378 905.32 346.52C905.32 344.663 904.907 342.828 904.11 341.15C903.373 339.639 902.235 338.359 900.82 337.45C899.356 336.573 897.682 336.11 895.975 336.11C894.269 336.11 892.594 336.573 891.13 337.45C889.711 338.363 888.564 339.641 887.81 341.15C886.973 342.804 886.551 344.637 886.58 346.49C886.546 348.363 886.968 350.217 887.81 351.89C888.569 353.404 889.714 354.691 891.13 355.62C892.579 356.557 894.275 357.037 896 357V356.99Z" fill="black"/>
        <path d="M921.62 375.31L927.8 361L927.86 365.78L912.58 331.24H919.58L929.14 353.77C929.414 354.343 929.648 354.935 929.84 355.54C930.12 356.34 930.35 357.13 930.54 357.91L929.03 358.26C929.34 357.44 929.64 356.62 929.93 355.81C930.22 355 930.5 354.17 930.78 353.36L938.78 331.24H945.9L933.3 361.87L928.1 375.29L921.62 375.31Z" fill="black"/>
        <path d="M230.4 0V383.64L278.55 359.81L325.62 336.54L326.69 336L374.83 312.19L422.9 288.41L423 288.36V216.86L353.54 182.51L423 148.16V95.29L230.4 0ZM384.5 245.82L278.5 298.24V219.61L305 206.52L384.5 245.82ZM329.18 144.11L326.69 145.33L302.55 157.27L278.55 169.16V85.4L300 96L326.71 109.21L363.23 127.28L329.18 144.11Z" fill="url(#paint0_linear_2586_39)"/>
        <path d="M220.99 0V383.64L165.75 361.3V139.79L111.03 202.96L55.24 148.81V313.64L0 289.85V93.83L53.58 70.73L55.24 71.45L106.5 115.52L164.23 23.03L220.99 0Z" fill="#39B54A"/>
    </g>
    <defs>
        <linearGradient id="paint0_linear_2586_39" x1="476.94" y1="191.82" x2="20.4004" y2="191.82" gradientUnits="userSpaceOnUse">
            <stop stop-color="#FF001C"/>
            <stop offset="1" stop-color="#FFFF00"/>
        </linearGradient>
        <clipPath id="clip0_2586_39">
            <rect width="1118.12" height="383.64" fill="white"/>
        </clipPath>
    </defs>
</svg>
